<svg xmlns="http://www.w3.org/2000/svg" width="12.97" height="15.906"><path data-name="Shape 100 copy 6" d="M11.5.006H1.47A1.462 1.462 0 00-.01 1.45v10.256a1.339 1.339 0 00.87 1.252l7.31 2.838a1.437 1.437 0 00.51.1h2.82a1.467 1.467 0 001.48-1.443v-13A1.468 1.468 0 0011.5.006zm-10.16 12.1l1.02-1.049a.492.492 0 01.69-.018l3.25 2.992zm10.65 2.339a.486.486 0 01-.49.481H8.71l-4.98-4.587a1.506 1.506 0 00-2.09.056l-.66.688V1.446a.486.486 0 01.49-.481H11.5a.486.486 0 01.49.481v13z" fill="#717171" fill-rule="evenodd"/></svg>