<svg xmlns="http://www.w3.org/2000/svg" width="12.97" height="15.906" viewBox="0 0 12.97 15.906">
  <defs>
    <style>
      .cls-1 {
        fill: #717171;
        fill-rule: evenodd;
      }

    </style>
  </defs>
  <path id="Shape_100_copy_6" data-name="Shape 100 copy 6" class="cls-1" d="M1248.53,589.1H1238.5a1.462,1.462,0,0,0-1.48,1.444V600.8a1.339,1.339,0,0,0,.87,1.252l7.31,2.838a1.437,1.437,0,0,0,.51.1h2.82a1.467,1.467,0,0,0,1.48-1.443v-13A1.468,1.468,0,0,0,1248.53,589.1Zm-10.16,12.1,1.02-1.049a0.492,0.492,0,0,1,.69-0.018l3.25,2.992Zm10.65,2.339a0.486,0.486,0,0,1-.49.481h-2.79l-4.98-4.587a1.506,1.506,0,0,0-2.09.056l-0.66.688v-9.637a0.486,0.486,0,0,1,.49-0.481h10.03a0.486,0.486,0,0,1,.49.481v13Z" transform="translate(-1237.03 -589.094)"/>
</svg>
